<mxfile host="app.diagrams.net" modified="2022-08-16T03:13:39.597Z" agent="5.0 (Macintosh; Intel Mac OS X 10_15_7) AppleWebKit/537.36 (KHTML, like Gecko) Chrome/103.0.5060.134 Safari/537.36 Edg/103.0.1264.77" etag="rICrkoXPwT6JrXs9fYva" version="20.2.4" type="github">
  <diagram id="U4CRXdSrVp32AQLuLO-R" name="Page-1">
    <mxGraphModel dx="2274" dy="1012" grid="1" gridSize="10" guides="1" tooltips="1" connect="1" arrows="1" fold="1" page="1" pageScale="1" pageWidth="850" pageHeight="1100" math="0" shadow="0">
      <root>
        <mxCell id="0" />
        <mxCell id="1" parent="0" />
        <mxCell id="enGRcDQNnDHYaYnzMA-j-25" value="" style="rounded=1;whiteSpace=wrap;html=1;labelBackgroundColor=#000000;fontSize=10;fontColor=#FFFFFF;strokeColor=#000000;fillColor=#FFFFFF;dashed=1;strokeWidth=2;" parent="1" vertex="1">
          <mxGeometry x="-80" y="535" width="140" height="70" as="geometry" />
        </mxCell>
        <mxCell id="UnK_xTmOptzVjHZMryua-3" value="" style="edgeStyle=orthogonalEdgeStyle;rounded=0;orthogonalLoop=1;jettySize=auto;html=1;fontColor=#FFFFFF;" parent="1" source="UnK_xTmOptzVjHZMryua-1" target="UnK_xTmOptzVjHZMryua-2" edge="1">
          <mxGeometry relative="1" as="geometry" />
        </mxCell>
        <mxCell id="UnK_xTmOptzVjHZMryua-1" value="&lt;div style=&quot;font-family: Menlo, Monaco, &amp;quot;Courier New&amp;quot;, monospace; line-height: 18px;&quot;&gt;&lt;span style=&quot;background-color: rgb(0, 0, 0);&quot;&gt;SDKAppContainer&lt;/span&gt;&lt;/div&gt;&lt;span style=&quot;background-color: rgb(0, 0, 0);&quot;&gt;&lt;font color=&quot;#19ff4f&quot;&gt;createAppContainer&lt;/font&gt;&lt;br&gt;&lt;/span&gt;" style="rounded=1;whiteSpace=wrap;html=1;strokeColor=#FFFFFF;gradientColor=none;fillColor=#000000;fontColor=#FFFFFF;" parent="1" vertex="1">
          <mxGeometry x="470" y="120" width="120" height="60" as="geometry" />
        </mxCell>
        <mxCell id="UnK_xTmOptzVjHZMryua-5" value="" style="edgeStyle=orthogonalEdgeStyle;rounded=0;orthogonalLoop=1;jettySize=auto;html=1;fontColor=#FFFFFF;" parent="1" source="UnK_xTmOptzVjHZMryua-2" target="UnK_xTmOptzVjHZMryua-4" edge="1">
          <mxGeometry relative="1" as="geometry" />
        </mxCell>
        <mxCell id="UnK_xTmOptzVjHZMryua-13" value="" style="edgeStyle=orthogonalEdgeStyle;rounded=0;orthogonalLoop=1;jettySize=auto;html=1;fontColor=#19FF4F;" parent="1" source="UnK_xTmOptzVjHZMryua-2" target="UnK_xTmOptzVjHZMryua-12" edge="1">
          <mxGeometry relative="1" as="geometry" />
        </mxCell>
        <mxCell id="UnK_xTmOptzVjHZMryua-2" value="RootStackNavigator" style="whiteSpace=wrap;html=1;fillColor=#000000;strokeColor=#FFFFFF;fontColor=#FFFFFF;rounded=1;gradientColor=none;" parent="1" vertex="1">
          <mxGeometry x="470" y="220" width="120" height="60" as="geometry" />
        </mxCell>
        <mxCell id="Vh9QQWU_i6SXUbNRA8Q1-2" value="" style="edgeStyle=orthogonalEdgeStyle;rounded=0;orthogonalLoop=1;jettySize=auto;html=1;" parent="1" source="UnK_xTmOptzVjHZMryua-4" target="UnK_xTmOptzVjHZMryua-14" edge="1">
          <mxGeometry relative="1" as="geometry" />
        </mxCell>
        <mxCell id="UnK_xTmOptzVjHZMryua-8" value="&lt;div style=&quot;font-family: Menlo, Monaco, &amp;quot;Courier New&amp;quot;, monospace; line-height: 18px;&quot;&gt;&lt;span style=&quot;&quot;&gt;OnBoardingStack&lt;/span&gt;&lt;/div&gt;StackNavigator" style="whiteSpace=wrap;html=1;fillColor=#000000;strokeColor=#FFFFFF;fontColor=#FFFFFF;rounded=1;gradientColor=none;labelBackgroundColor=#000000;" parent="1" vertex="1">
          <mxGeometry x="-200" y="460" width="120" height="60" as="geometry" />
        </mxCell>
        <mxCell id="UnK_xTmOptzVjHZMryua-12" value="ModalStack&lt;br&gt;StackNavigator" style="whiteSpace=wrap;html=1;fillColor=#000000;strokeColor=#FFFFFF;fontColor=#FFFFFF;rounded=1;gradientColor=none;" parent="1" vertex="1">
          <mxGeometry x="700" y="310" width="120" height="60" as="geometry" />
        </mxCell>
        <mxCell id="UnK_xTmOptzVjHZMryua-17" value="" style="edgeStyle=orthogonalEdgeStyle;rounded=0;orthogonalLoop=1;jettySize=auto;html=1;fontColor=#00CC00;" parent="1" source="UnK_xTmOptzVjHZMryua-14" target="UnK_xTmOptzVjHZMryua-16" edge="1">
          <mxGeometry relative="1" as="geometry" />
        </mxCell>
        <mxCell id="UnK_xTmOptzVjHZMryua-20" value="" style="edgeStyle=orthogonalEdgeStyle;rounded=0;orthogonalLoop=1;jettySize=auto;html=1;fontColor=#00CC00;" parent="1" source="UnK_xTmOptzVjHZMryua-14" target="UnK_xTmOptzVjHZMryua-19" edge="1">
          <mxGeometry relative="1" as="geometry" />
        </mxCell>
        <mxCell id="UnK_xTmOptzVjHZMryua-22" value="" style="edgeStyle=orthogonalEdgeStyle;rounded=0;orthogonalLoop=1;jettySize=auto;html=1;fontColor=#00CC00;" parent="1" source="UnK_xTmOptzVjHZMryua-14" target="UnK_xTmOptzVjHZMryua-21" edge="1">
          <mxGeometry relative="1" as="geometry" />
        </mxCell>
        <mxCell id="UnK_xTmOptzVjHZMryua-24" value="" style="edgeStyle=orthogonalEdgeStyle;rounded=0;orthogonalLoop=1;jettySize=auto;html=1;fontColor=#00CC00;" parent="1" source="UnK_xTmOptzVjHZMryua-14" target="UnK_xTmOptzVjHZMryua-23" edge="1">
          <mxGeometry relative="1" as="geometry" />
        </mxCell>
        <mxCell id="UnK_xTmOptzVjHZMryua-26" value="" style="edgeStyle=orthogonalEdgeStyle;rounded=0;orthogonalLoop=1;jettySize=auto;html=1;fontColor=#00CC00;" parent="1" source="UnK_xTmOptzVjHZMryua-14" target="UnK_xTmOptzVjHZMryua-25" edge="1">
          <mxGeometry relative="1" as="geometry" />
        </mxCell>
        <mxCell id="UnK_xTmOptzVjHZMryua-14" value="MainBottomTab&lt;br&gt;&lt;font color=&quot;#00cc00&quot;&gt;TabNavigator&lt;/font&gt;" style="whiteSpace=wrap;html=1;fillColor=#000000;strokeColor=#FFFFFF;fontColor=#FFFFFF;rounded=1;gradientColor=none;" parent="1" vertex="1">
          <mxGeometry x="220" y="450" width="120" height="60" as="geometry" />
        </mxCell>
        <mxCell id="UnK_xTmOptzVjHZMryua-36" value="" style="edgeStyle=orthogonalEdgeStyle;rounded=0;orthogonalLoop=1;jettySize=auto;html=1;fontColor=#00CC00;" parent="1" source="UnK_xTmOptzVjHZMryua-16" target="UnK_xTmOptzVjHZMryua-35" edge="1">
          <mxGeometry relative="1" as="geometry" />
        </mxCell>
        <mxCell id="UnK_xTmOptzVjHZMryua-16" value="&lt;div style=&quot;font-family: Menlo, Monaco, &amp;quot;Courier New&amp;quot;, monospace; line-height: 18px;&quot;&gt;&lt;span style=&quot;&quot;&gt;HomeStack&lt;/span&gt;&lt;/div&gt;StackNavigator" style="whiteSpace=wrap;html=1;fillColor=#000000;strokeColor=#FFFFFF;fontColor=#FFFFFF;rounded=1;gradientColor=none;labelBackgroundColor=#000000;" parent="1" vertex="1">
          <mxGeometry x="-70" y="540" width="120" height="60" as="geometry" />
        </mxCell>
        <mxCell id="UnK_xTmOptzVjHZMryua-62" value="" style="edgeStyle=orthogonalEdgeStyle;rounded=0;orthogonalLoop=1;jettySize=auto;html=1;fontColor=#FFFFFF;entryX=0.5;entryY=0;entryDx=0;entryDy=0;" parent="1" source="UnK_xTmOptzVjHZMryua-19" edge="1">
          <mxGeometry relative="1" as="geometry">
            <mxPoint x="143" y="630" as="targetPoint" />
          </mxGeometry>
        </mxCell>
        <mxCell id="UnK_xTmOptzVjHZMryua-19" value="&lt;span style=&quot;font-family: Menlo, Monaco, &amp;quot;Courier New&amp;quot;, monospace;&quot;&gt;PerformanceStack&lt;br&gt;&lt;/span&gt;StackNavigator" style="whiteSpace=wrap;html=1;fillColor=#000000;strokeColor=#FFFFFF;fontColor=#FFFFFF;rounded=1;gradientColor=none;labelBackgroundColor=#000000;" parent="1" vertex="1">
          <mxGeometry x="83" y="540" width="120" height="60" as="geometry" />
        </mxCell>
        <mxCell id="UnK_xTmOptzVjHZMryua-63" value="" style="edgeStyle=orthogonalEdgeStyle;rounded=0;orthogonalLoop=1;jettySize=auto;html=1;fontColor=#FFFFFF;entryX=0.5;entryY=0;entryDx=0;entryDy=0;" parent="1" edge="1">
          <mxGeometry relative="1" as="geometry">
            <mxPoint x="279" y="600" as="sourcePoint" />
            <mxPoint x="281" y="630" as="targetPoint" />
          </mxGeometry>
        </mxCell>
        <mxCell id="UnK_xTmOptzVjHZMryua-21" value="&lt;div style=&quot;font-family: Menlo, Monaco, &amp;quot;Courier New&amp;quot;, monospace; line-height: 18px;&quot;&gt;&lt;span style=&quot;background-color: rgb(0, 0, 0);&quot;&gt;InvestStack&lt;/span&gt;&lt;/div&gt;StackNavigator" style="whiteSpace=wrap;html=1;fillColor=#000000;strokeColor=#FFFFFF;fontColor=#FFFFFF;rounded=1;gradientColor=none;" parent="1" vertex="1">
          <mxGeometry x="220" y="540" width="120" height="60" as="geometry" />
        </mxCell>
        <mxCell id="UnK_xTmOptzVjHZMryua-64" value="" style="edgeStyle=orthogonalEdgeStyle;rounded=0;orthogonalLoop=1;jettySize=auto;html=1;fontColor=#FFFFFF;entryX=0.5;entryY=0;entryDx=0;entryDy=0;" parent="1" source="UnK_xTmOptzVjHZMryua-23" edge="1">
          <mxGeometry relative="1" as="geometry">
            <mxPoint x="420" y="630" as="targetPoint" />
          </mxGeometry>
        </mxCell>
        <mxCell id="UnK_xTmOptzVjHZMryua-23" value="&lt;div style=&quot;font-family: Menlo, Monaco, &amp;quot;Courier New&amp;quot;, monospace; line-height: 18px;&quot;&gt;&lt;span style=&quot;&quot;&gt;PlanStack&lt;/span&gt;&lt;/div&gt;StackNavigator" style="whiteSpace=wrap;html=1;fillColor=#000000;strokeColor=#FFFFFF;fontColor=#FFFFFF;rounded=1;gradientColor=none;labelBackgroundColor=#000000;" parent="1" vertex="1">
          <mxGeometry x="360" y="540" width="120" height="60" as="geometry" />
        </mxCell>
        <mxCell id="UnK_xTmOptzVjHZMryua-65" value="" style="edgeStyle=orthogonalEdgeStyle;rounded=0;orthogonalLoop=1;jettySize=auto;html=1;fontColor=#FFFFFF;entryX=0.5;entryY=0;entryDx=0;entryDy=0;" parent="1" source="UnK_xTmOptzVjHZMryua-25" edge="1">
          <mxGeometry relative="1" as="geometry">
            <mxPoint x="550" y="630" as="targetPoint" />
          </mxGeometry>
        </mxCell>
        <mxCell id="UnK_xTmOptzVjHZMryua-25" value="&lt;span style=&quot;font-family: Menlo, Monaco, &amp;quot;Courier New&amp;quot;, monospace;&quot;&gt;MeStack&lt;br&gt;&lt;/span&gt;StackNavigator" style="whiteSpace=wrap;html=1;fillColor=#000000;strokeColor=#FFFFFF;fontColor=#FFFFFF;rounded=1;gradientColor=none;labelBackgroundColor=#000000;" parent="1" vertex="1">
          <mxGeometry x="490" y="540" width="120" height="60" as="geometry" />
        </mxCell>
        <mxCell id="UnK_xTmOptzVjHZMryua-27" value="&lt;div style=&quot;font-family: Menlo, Monaco, &amp;quot;Courier New&amp;quot;, monospace; line-height: 18px;&quot;&gt;&lt;span style=&quot;&quot;&gt;CommonUIStack&lt;/span&gt;&lt;/div&gt;StackNavigator" style="whiteSpace=wrap;html=1;fillColor=#000000;strokeColor=#FFFFFF;fontColor=#FFFFFF;rounded=1;gradientColor=none;labelBackgroundColor=#000000;" parent="1" vertex="1">
          <mxGeometry x="580" y="450" width="120" height="60" as="geometry" />
        </mxCell>
        <mxCell id="enGRcDQNnDHYaYnzMA-j-2" value="" style="group" parent="1" vertex="1" connectable="0">
          <mxGeometry x="-70" y="630" width="120" height="76" as="geometry" />
        </mxCell>
        <mxCell id="UnK_xTmOptzVjHZMryua-35" value="Home" style="whiteSpace=wrap;html=1;fillColor=#FFFFFF;strokeColor=#000000;fontColor=#FFFFFF;rounded=1;gradientColor=none;" parent="enGRcDQNnDHYaYnzMA-j-2" vertex="1">
          <mxGeometry width="120" height="60" as="geometry" />
        </mxCell>
        <mxCell id="UnK_xTmOptzVjHZMryua-37" value="Home" style="whiteSpace=wrap;html=1;fillColor=#FFFFFF;strokeColor=#000000;fontColor=#FFFFFF;rounded=1;gradientColor=none;" parent="enGRcDQNnDHYaYnzMA-j-2" vertex="1">
          <mxGeometry y="6" width="120" height="60" as="geometry" />
        </mxCell>
        <mxCell id="UnK_xTmOptzVjHZMryua-38" value="Home" style="whiteSpace=wrap;html=1;fillColor=#FFFFFF;strokeColor=#000000;fontColor=#FFFFFF;rounded=1;gradientColor=none;" parent="enGRcDQNnDHYaYnzMA-j-2" vertex="1">
          <mxGeometry y="11" width="120" height="60" as="geometry" />
        </mxCell>
        <mxCell id="UnK_xTmOptzVjHZMryua-39" value="Home&lt;br&gt;Screen" style="whiteSpace=wrap;html=1;fillColor=#000000;strokeColor=#FFFFFF;fontColor=#FFFFFF;rounded=1;gradientColor=none;" parent="enGRcDQNnDHYaYnzMA-j-2" vertex="1">
          <mxGeometry y="16" width="120" height="60" as="geometry" />
        </mxCell>
        <mxCell id="enGRcDQNnDHYaYnzMA-j-3" value="" style="group" parent="1" vertex="1" connectable="0">
          <mxGeometry x="85" y="630" width="120" height="76" as="geometry" />
        </mxCell>
        <mxCell id="enGRcDQNnDHYaYnzMA-j-4" value="Home" style="whiteSpace=wrap;html=1;fillColor=#FFFFFF;strokeColor=#000000;fontColor=#FFFFFF;rounded=1;gradientColor=none;" parent="enGRcDQNnDHYaYnzMA-j-3" vertex="1">
          <mxGeometry width="120" height="60" as="geometry" />
        </mxCell>
        <mxCell id="enGRcDQNnDHYaYnzMA-j-5" value="Home" style="whiteSpace=wrap;html=1;fillColor=#FFFFFF;strokeColor=#000000;fontColor=#FFFFFF;rounded=1;gradientColor=none;" parent="enGRcDQNnDHYaYnzMA-j-3" vertex="1">
          <mxGeometry y="6" width="120" height="60" as="geometry" />
        </mxCell>
        <mxCell id="enGRcDQNnDHYaYnzMA-j-6" value="Home" style="whiteSpace=wrap;html=1;fillColor=#FFFFFF;strokeColor=#000000;fontColor=#FFFFFF;rounded=1;gradientColor=none;" parent="enGRcDQNnDHYaYnzMA-j-3" vertex="1">
          <mxGeometry y="11" width="120" height="60" as="geometry" />
        </mxCell>
        <mxCell id="enGRcDQNnDHYaYnzMA-j-7" value="Performance&lt;br&gt;Screen" style="whiteSpace=wrap;html=1;fillColor=#000000;strokeColor=#FFFFFF;fontColor=#FFFFFF;rounded=1;gradientColor=none;" parent="enGRcDQNnDHYaYnzMA-j-3" vertex="1">
          <mxGeometry y="16" width="120" height="60" as="geometry" />
        </mxCell>
        <mxCell id="enGRcDQNnDHYaYnzMA-j-8" value="" style="group" parent="1" vertex="1" connectable="0">
          <mxGeometry x="222" y="630" width="120" height="76" as="geometry" />
        </mxCell>
        <mxCell id="enGRcDQNnDHYaYnzMA-j-9" value="Home" style="whiteSpace=wrap;html=1;fillColor=#FFFFFF;strokeColor=#000000;fontColor=#FFFFFF;rounded=1;gradientColor=none;" parent="enGRcDQNnDHYaYnzMA-j-8" vertex="1">
          <mxGeometry width="120" height="60" as="geometry" />
        </mxCell>
        <mxCell id="enGRcDQNnDHYaYnzMA-j-10" value="Home" style="whiteSpace=wrap;html=1;fillColor=#FFFFFF;strokeColor=#000000;fontColor=#FFFFFF;rounded=1;gradientColor=none;" parent="enGRcDQNnDHYaYnzMA-j-8" vertex="1">
          <mxGeometry y="6" width="120" height="60" as="geometry" />
        </mxCell>
        <mxCell id="enGRcDQNnDHYaYnzMA-j-11" value="Home" style="whiteSpace=wrap;html=1;fillColor=#FFFFFF;strokeColor=#000000;fontColor=#FFFFFF;rounded=1;gradientColor=none;" parent="enGRcDQNnDHYaYnzMA-j-8" vertex="1">
          <mxGeometry y="11" width="120" height="60" as="geometry" />
        </mxCell>
        <mxCell id="enGRcDQNnDHYaYnzMA-j-12" value="Invest&lt;br&gt;Screen" style="whiteSpace=wrap;html=1;fillColor=#000000;strokeColor=#FFFFFF;fontColor=#FFFFFF;rounded=1;gradientColor=none;" parent="enGRcDQNnDHYaYnzMA-j-8" vertex="1">
          <mxGeometry y="16" width="120" height="60" as="geometry" />
        </mxCell>
        <mxCell id="enGRcDQNnDHYaYnzMA-j-13" value="" style="group" parent="1" vertex="1" connectable="0">
          <mxGeometry x="360" y="630" width="120" height="76" as="geometry" />
        </mxCell>
        <mxCell id="enGRcDQNnDHYaYnzMA-j-14" value="Home" style="whiteSpace=wrap;html=1;fillColor=#FFFFFF;strokeColor=#000000;fontColor=#FFFFFF;rounded=1;gradientColor=none;" parent="enGRcDQNnDHYaYnzMA-j-13" vertex="1">
          <mxGeometry width="120" height="60" as="geometry" />
        </mxCell>
        <mxCell id="enGRcDQNnDHYaYnzMA-j-15" value="Home" style="whiteSpace=wrap;html=1;fillColor=#FFFFFF;strokeColor=#000000;fontColor=#FFFFFF;rounded=1;gradientColor=none;" parent="enGRcDQNnDHYaYnzMA-j-13" vertex="1">
          <mxGeometry y="6" width="120" height="60" as="geometry" />
        </mxCell>
        <mxCell id="enGRcDQNnDHYaYnzMA-j-16" value="Home" style="whiteSpace=wrap;html=1;fillColor=#FFFFFF;strokeColor=#000000;fontColor=#FFFFFF;rounded=1;gradientColor=none;" parent="enGRcDQNnDHYaYnzMA-j-13" vertex="1">
          <mxGeometry y="11" width="120" height="60" as="geometry" />
        </mxCell>
        <mxCell id="enGRcDQNnDHYaYnzMA-j-17" value="Plan&lt;br&gt;Screen" style="whiteSpace=wrap;html=1;fillColor=#000000;strokeColor=#FFFFFF;fontColor=#FFFFFF;rounded=1;gradientColor=none;" parent="enGRcDQNnDHYaYnzMA-j-13" vertex="1">
          <mxGeometry y="16" width="120" height="60" as="geometry" />
        </mxCell>
        <mxCell id="enGRcDQNnDHYaYnzMA-j-18" value="" style="group" parent="1" vertex="1" connectable="0">
          <mxGeometry x="497" y="630" width="120" height="76" as="geometry" />
        </mxCell>
        <mxCell id="enGRcDQNnDHYaYnzMA-j-19" value="Home" style="whiteSpace=wrap;html=1;fillColor=#FFFFFF;strokeColor=#000000;fontColor=#FFFFFF;rounded=1;gradientColor=none;" parent="enGRcDQNnDHYaYnzMA-j-18" vertex="1">
          <mxGeometry width="120" height="60" as="geometry" />
        </mxCell>
        <mxCell id="enGRcDQNnDHYaYnzMA-j-20" value="Home" style="whiteSpace=wrap;html=1;fillColor=#FFFFFF;strokeColor=#000000;fontColor=#FFFFFF;rounded=1;gradientColor=none;" parent="enGRcDQNnDHYaYnzMA-j-18" vertex="1">
          <mxGeometry y="6" width="120" height="60" as="geometry" />
        </mxCell>
        <mxCell id="enGRcDQNnDHYaYnzMA-j-21" value="Home" style="whiteSpace=wrap;html=1;fillColor=#FFFFFF;strokeColor=#000000;fontColor=#FFFFFF;rounded=1;gradientColor=none;" parent="enGRcDQNnDHYaYnzMA-j-18" vertex="1">
          <mxGeometry y="11" width="120" height="60" as="geometry" />
        </mxCell>
        <mxCell id="enGRcDQNnDHYaYnzMA-j-22" value="Me&lt;br&gt;Screen" style="whiteSpace=wrap;html=1;fillColor=#000000;strokeColor=#FFFFFF;fontColor=#FFFFFF;rounded=1;gradientColor=none;" parent="enGRcDQNnDHYaYnzMA-j-18" vertex="1">
          <mxGeometry y="16" width="120" height="60" as="geometry" />
        </mxCell>
        <mxCell id="enGRcDQNnDHYaYnzMA-j-28" value="&lt;font style=&quot;font-size: 14px;&quot;&gt;*1: 默认所有Screen的Route Name不带后缀, 比如HomeScreen的Route Name为Home.&lt;br style=&quot;font-size: 14px;&quot;&gt;*2. 默认所有Navigator的Route Name带后缀, 比如Home Stack Navigator的Route Name为HomeStack.&lt;span style=&quot;text-align: center; background-color: rgb(255, 255, 255); font-size: 14px;&quot;&gt;&lt;br style=&quot;font-size: 14px;&quot;&gt;*3. 从OnboardingStack走完进入MainBottomTab的Home页面时, 看起来不需要用navigation.reset()处理栈里的OnBoardingStack&lt;br&gt;&amp;nbsp; &amp;nbsp; &amp;nbsp;相关路由. 因为Home Page页面左上角的返回键做了特殊处理, 会直接返回Pulse或WealthSdkApp.&lt;/span&gt;&lt;span style=&quot;text-align: center; background-color: rgb(255, 255, 255); font-size: 14px;&quot;&gt;&lt;br style=&quot;font-size: 14px;&quot;&gt;&lt;/span&gt;&lt;/font&gt;" style="text;html=1;align=left;verticalAlign=middle;resizable=0;points=[];autosize=1;strokeColor=none;fillColor=none;fontColor=#0000FF;fontStyle=0;fontSize=14;" parent="1" vertex="1">
          <mxGeometry x="-170" y="730" width="810" height="80" as="geometry" />
        </mxCell>
        <mxCell id="enGRcDQNnDHYaYnzMA-j-29" value="&lt;span style=&quot;box-sizing: border-box; font-family: SFMono-Regular, Menlo, Monaco, Consolas, &amp;quot;Liberation Mono&amp;quot;, &amp;quot;Courier New&amp;quot;, monospace; font-size: 10px; text-align: start; background-color: rgb(246, 248, 250);&quot; class=&quot;token method function property-access&quot;&gt;&lt;br style=&quot;font-size: 10px;&quot;&gt;&lt;/span&gt;" style="text;html=1;align=center;verticalAlign=middle;resizable=0;points=[];autosize=1;strokeColor=none;fillColor=none;fontColor=#00CC00;fontSize=10;" parent="1" vertex="1">
          <mxGeometry x="90" y="790" width="20" height="30" as="geometry" />
        </mxCell>
        <mxCell id="Vh9QQWU_i6SXUbNRA8Q1-1" value="" style="group" parent="1" vertex="1" connectable="0">
          <mxGeometry x="-370" y="457" width="140" height="70" as="geometry" />
        </mxCell>
        <mxCell id="enGRcDQNnDHYaYnzMA-j-24" value="" style="rounded=1;whiteSpace=wrap;html=1;labelBackgroundColor=#000000;fontSize=10;fontColor=#FFFFFF;strokeColor=#000000;fillColor=#FFFFFF;dashed=1;strokeWidth=2;" parent="Vh9QQWU_i6SXUbNRA8Q1-1" vertex="1">
          <mxGeometry width="140" height="70" as="geometry" />
        </mxCell>
        <mxCell id="UnK_xTmOptzVjHZMryua-6" value="&lt;div style=&quot;font-family: Menlo, Monaco, &amp;quot;Courier New&amp;quot;, monospace; line-height: 18px;&quot;&gt;&lt;span style=&quot;&quot;&gt;AuthStack&lt;/span&gt;&lt;/div&gt;StackNavigator" style="whiteSpace=wrap;html=1;fillColor=#000000;strokeColor=#FFFFFF;fontColor=#FFFFFF;rounded=1;gradientColor=none;labelBackgroundColor=#000000;" parent="Vh9QQWU_i6SXUbNRA8Q1-1" vertex="1">
          <mxGeometry x="10" y="6" width="120" height="60" as="geometry" />
        </mxCell>
        <mxCell id="Vh9QQWU_i6SXUbNRA8Q1-3" value="" style="group" parent="1" vertex="1" connectable="0">
          <mxGeometry x="212" y="305" width="140" height="70" as="geometry" />
        </mxCell>
        <mxCell id="enGRcDQNnDHYaYnzMA-j-26" value="" style="rounded=1;whiteSpace=wrap;html=1;labelBackgroundColor=#000000;fontSize=10;fontColor=#FFFFFF;strokeColor=#000000;fillColor=#FFFFFF;dashed=1;strokeWidth=2;" parent="Vh9QQWU_i6SXUbNRA8Q1-3" vertex="1">
          <mxGeometry width="140" height="70" as="geometry" />
        </mxCell>
        <mxCell id="UnK_xTmOptzVjHZMryua-4" value="MainSwitch&lt;br&gt;&lt;font color=&quot;#19ff4f&quot;&gt;SwitchNavigator&lt;/font&gt;" style="whiteSpace=wrap;html=1;fillColor=#000000;strokeColor=#FFFFFF;fontColor=#FFFFFF;rounded=1;gradientColor=none;" parent="Vh9QQWU_i6SXUbNRA8Q1-3" vertex="1">
          <mxGeometry x="8" y="5" width="120" height="60" as="geometry" />
        </mxCell>
        <mxCell id="Vh9QQWU_i6SXUbNRA8Q1-4" style="edgeStyle=orthogonalEdgeStyle;rounded=0;orthogonalLoop=1;jettySize=auto;html=1;" parent="1" source="UnK_xTmOptzVjHZMryua-4" edge="1">
          <mxGeometry relative="1" as="geometry">
            <mxPoint x="-300" y="460" as="targetPoint" />
          </mxGeometry>
        </mxCell>
        <mxCell id="Vh9QQWU_i6SXUbNRA8Q1-5" style="edgeStyle=orthogonalEdgeStyle;rounded=0;orthogonalLoop=1;jettySize=auto;html=1;" parent="1" source="UnK_xTmOptzVjHZMryua-4" target="UnK_xTmOptzVjHZMryua-8" edge="1">
          <mxGeometry relative="1" as="geometry" />
        </mxCell>
        <mxCell id="Vh9QQWU_i6SXUbNRA8Q1-6" style="edgeStyle=orthogonalEdgeStyle;rounded=0;orthogonalLoop=1;jettySize=auto;html=1;" parent="1" source="UnK_xTmOptzVjHZMryua-4" target="UnK_xTmOptzVjHZMryua-27" edge="1">
          <mxGeometry relative="1" as="geometry" />
        </mxCell>
        <mxCell id="1SCohnmMFBW-_MSJiEp5-1" value="&lt;span style=&quot;color: rgb(0, 0, 255); font-family: Helvetica; font-size: 14px; font-style: normal; font-variant-ligatures: normal; font-variant-caps: normal; font-weight: 400; letter-spacing: normal; orphans: 2; text-align: left; text-indent: 0px; text-transform: none; widows: 2; word-spacing: 0px; -webkit-text-stroke-width: 0px; background-color: rgb(248, 249, 250); text-decoration-thickness: initial; text-decoration-style: initial; text-decoration-color: initial; float: none; display: inline !important;&quot;&gt;*虚线框表示默认路由.&lt;/span&gt;" style="text;whiteSpace=wrap;html=1;" vertex="1" parent="1">
          <mxGeometry x="-360" y="280" width="180" height="40" as="geometry" />
        </mxCell>
      </root>
    </mxGraphModel>
  </diagram>
</mxfile>
